<?xml version="1.0" encoding="utf-8"?>
<!-- Generator: Adobe Illustrator 19.1.0, SVG Export Plug-In . SVG Version: 6.00 Build 0)  -->
<svg version="1.1" id="Layer_1" focusable="false" xmlns="http://www.w3.org/2000/svg" xmlns:xlink="http://www.w3.org/1999/xlink"
	 x="0px" y="0px" viewBox="-164 42.3 512 512" style="enable-background:new -164 42.3 512 512;" xml:space="preserve">
<style type="text/css">
	.st0{fill:#BCBEC0;}
</style>
<path class="st0" d="M341,485l-99.7-99.7c-4.5-4.5-10.6-7-17-7H208c27.6-35.3,44-79.7,44-128c0-114.9-93.1-208-208-208
	s-208,93.1-208,208s93.1,208,208,208c48.3,0,92.7-16.4,128-44v16.3c0,6.4,2.5,12.5,7,17l99.7,99.7c9.4,9.4,24.6,9.4,33.9,0
	l28.3-28.3C350.3,509.6,350.3,494.4,341,485z M44,378.3c-70.7,0-128-57.2-128-128c0-70.7,57.2-128,128-128c70.7,0,128,57.2,128,128
	C172,321,114.8,378.3,44,378.3z"/>
</svg>
